<?xml version="1.0" standalone="no"?>
<!DOCTYPE svg PUBLIC "-//W3C//DTD SVG 20010904//EN"
 "http://www.w3.org/TR/2001/REC-SVG-20010904/DTD/svg10.dtd">
<svg version="1.0" xmlns="http://www.w3.org/2000/svg"
 width="260.000000pt" height="260.000000pt" viewBox="0 0 260.000000 260.000000"
 preserveAspectRatio="xMidYMid meet">
<metadata>
Created by potrace 1.14, written by Peter Selinger 2001-2017
</metadata>
<g transform="translate(0.000000,260.000000) scale(0.100000,-0.100000)"
fill="#000000" stroke="none">
<path d="M1240 2594 c-25 -11 -71 -58 -82 -84 -14 -33 -11 -86 7 -120 22 -42
59 -67 118 -80 29 -6 93 -25 142 -42 399 -136 703 -396 869 -743 35 -72 96
-248 97 -278 0 -21 1 -21 8 -2 5 11 7 22 6 25 -2 3 -6 40 -10 82 -23 264 -136
540 -310 758 -26 33 -171 177 -213 213 -173 146 -545 305 -632 271z"/>
<path d="M715 2097 c-135 -82 -209 -140 -313 -247 -185 -189 -313 -432 -375
-710 -37 -170 -28 -469 20 -638 33 -116 153 -151 240 -69 41 39 51 93 29 168
-75 260 -76 583 -2 846 62 220 176 413 343 580 45 46 82 83 80 82 -1 0 -11 -6
-22 -12z"/>
<path d="M1250 1932 c-54 -26 -79 -108 -50 -163 16 -28 70 -59 105 -59 35 0
89 31 105 59 15 29 15 82 0 111 -15 28 -47 59 -64 62 -43 6 -69 3 -96 -10z"/>
<path d="M1563 1650 c-108 -48 -144 -192 -70 -277 111 -126 305 -69 321 95 13
135 -128 237 -251 182z"/>
<path d="M905 1624 c-105 -35 -134 -164 -57 -247 65 -69 195 -49 236 37 58
123 -53 253 -179 210z"/>
<path d="M1232 1336 c-142 -65 -144 -273 -2 -333 102 -43 222 14 251 119 18
70 -15 156 -76 197 -45 30 -126 38 -173 17z"/>
<path d="M602 1270 c-68 -42 -79 -130 -23 -184 73 -70 201 -18 201 82 0 58
-65 122 -122 122 -13 0 -38 -9 -56 -20z"/>
<path d="M1950 1283 c-60 -11 -102 -91 -81 -154 32 -95 173 -103 216 -13 15
33 15 63 0 111 -7 21 -79 65 -101 62 -5 -1 -20 -4 -34 -6z"/>
<path d="M898 996 c-64 -27 -100 -86 -93 -155 8 -79 68 -132 150 -133 145 -3
201 197 77 274 -38 24 -96 30 -134 14z"/>
<path d="M1587 995 c-48 -16 -64 -31 -86 -74 -64 -129 84 -268 208 -195 153
90 46 327 -122 269z"/>
<path d="M1255 742 c-112 -39 -164 -168 -108 -264 70 -120 240 -121 314 -2 46
76 21 190 -55 242 -35 24 -116 37 -151 24z"/>
<path d="M2415 674 c-5 -1 -21 -5 -35 -8 -14 -3 -64 -42 -110 -87 -224 -214
-483 -358 -755 -418 -27 -6 -61 -14 -75 -18 -14 -3 -97 -7 -185 -9 -163 -2
-274 11 -406 50 -29 9 -54 14 -56 13 -2 -2 45 -27 104 -54 120 -56 213 -88
318 -109 11 -2 31 -6 45 -9 143 -29 361 -25 552 11 103 19 280 86 395 151 138
77 318 227 348 289 28 60 1 144 -57 175 -27 14 -70 27 -83 23z"/>
</g>
</svg>
