<?xml version="1.0" encoding="UTF-8"?>
<svg width="59px" height="134px" viewBox="0 0 59 134" version="1.1" xmlns="http://www.w3.org/2000/svg" xmlns:xlink="http://www.w3.org/1999/xlink">
    <title>distinctions</title>
    <g id="good" stroke="none" stroke-width="1" fill="none" fill-rule="evenodd">
        <g id="distinctions">
            <polygon id="Rectangle" fill="#FAB900" points="0 -1.47840074e-12 59 -1.47840074e-12 59 134 29.5 112.636364 0 134"></polygon>
            <path d="M-10.58,63.4991111 C-10.4733333,63.4979259 -10.324,63.4955556 -10.132,63.492 C-9.844,63.4866667 -9.56933333,63.468 -9.308,63.436 C-8.396,63.3186667 -7.624,62.9946667 -6.992,62.464 C-6.36,61.9333333 -5.88133333,61.2573333 -5.556,60.436 C-5.23066667,59.6146667 -5.068,58.716 -5.068,57.74 C-5.068,56.764 -5.23066667,55.8653333 -5.556,55.044 C-5.88133333,54.2226667 -6.36,53.5466667 -6.992,53.016 C-7.624,52.4853333 -8.396,52.1613333 -9.308,52.044 C-9.57466667,52.012 -9.85066667,51.9933333 -10.136,51.988 C-10.4213333,51.9826667 -10.612,51.98 -10.708,51.98 L-10.708,51.98 L-14.38,51.98 L-14.38,63.5 L-10.58,63.4991111 Z M-10.708,61.684 L-12.42,61.684 L-12.42,53.796 L-10.708,53.796 C-10.548,53.796 -10.344,53.8 -10.096,53.808 C-9.848,53.816 -9.628,53.8413333 -9.436,53.884 C-8.90266667,53.9853333 -8.464,54.2226667 -8.12,54.596 C-7.776,54.9693333 -7.52133333,55.4306667 -7.356,55.98 C-7.19066667,56.5293333 -7.108,57.116 -7.108,57.74 C-7.108,58.3426667 -7.18933333,58.9186667 -7.352,59.468 C-7.51466667,60.0173333 -7.76666667,60.484 -8.108,60.868 C-8.44933333,61.252 -8.892,61.4946667 -9.436,61.596 C-9.628,61.6333333 -9.848,61.6573333 -10.096,61.668 C-10.344,61.6786667 -10.548,61.684 -10.708,61.684 L-10.708,61.684 Z M-1.584,53.548 L-1.584,51.78 L-3.512,51.78 L-3.512,53.548 L-1.584,53.548 Z M-1.584,63.5 L-1.584,54.86 L-3.512,54.86 L-3.512,63.5 L-1.584,63.5 Z M3.652,63.74 C4.76666667,63.74 5.64,63.492 6.272,62.996 C6.904,62.5 7.22,61.8173333 7.22,60.948 C7.22,60.5 7.128,60.1186667 6.944,59.804 C6.76,59.4893333 6.46133333,59.2186667 6.048,58.992 C5.63466667,58.7653333 5.084,58.564 4.396,58.388 C3.724,58.2173333 3.21866667,58.0733333 2.88,57.956 C2.54133333,57.8386667 2.316,57.7213333 2.204,57.604 C2.092,57.4866667 2.036,57.3453333 2.036,57.18 C2.036,56.8866667 2.17466667,56.6586667 2.452,56.496 C2.72933333,56.3333333 3.09466667,56.2653333 3.548,56.292 C4.02266667,56.3186667 4.40266667,56.4386667 4.688,56.652 C4.97333333,56.8653333 5.14,57.156 5.188,57.524 L5.188,57.524 L7.156,57.172 C7.08133333,56.6546667 6.884,56.204 6.564,55.82 C6.244,55.436 5.824,55.14 5.304,54.932 C4.784,54.724 4.188,54.62 3.516,54.62 C2.828,54.62 2.23066667,54.728 1.724,54.944 C1.21733333,55.16 0.822666667,55.468 0.54,55.868 C0.257333333,56.268 0.116,56.7373333 0.116,57.276 C0.116,57.708 0.209333333,58.076 0.396,58.38 C0.582666667,58.684 0.889333333,58.9466667 1.316,59.168 C1.74266667,59.3893333 2.31866667,59.596 3.044,59.788 C3.69466667,59.9586667 4.17733333,60.1 4.492,60.212 C4.80666667,60.324 5.01066667,60.44 5.104,60.56 C5.19733333,60.68 5.244,60.8386667 5.244,61.036 C5.244,61.356 5.11733333,61.608 4.864,61.792 C4.61066667,61.976 4.252,62.068 3.788,62.068 C3.26,62.068 2.82266667,61.9453333 2.476,61.7 C2.12933333,61.4546667 1.90533333,61.1186667 1.804,60.692 L1.804,60.692 L-0.164,60.996 C-0.02,61.8653333 0.385333333,62.54 1.052,63.02 C1.71866667,63.5 2.58533333,63.74 3.652,63.74 Z M11.868,63.64 C12.4146667,63.6533333 12.9733333,63.6066667 13.544,63.5 L13.544,63.5 L13.544,61.884 C13.0053333,61.964 12.5253333,61.9853333 12.104,61.948 C11.6826667,61.9106667 11.376,61.732 11.184,61.412 C11.0826667,61.2466667 11.028,61.0333333 11.02,60.772 C11.012,60.5106667 11.008,60.2066667 11.008,59.86 L11.008,56.372 L13.544,56.372 L13.544,54.86 L11.008,54.86 L11.008,52.46 L9.088,52.46 L9.088,54.86 L7.52,54.86 L7.52,56.372 L9.088,56.372 L9.088,59.972 C9.088,60.34 9.091,60.6795 9.097,60.9905 L9.104,61.292 C9.11466667,61.6813333 9.21866667,62.0626667 9.416,62.436 C9.64,62.8466667 9.968,63.1466667 10.4,63.336 C10.832,63.5253333 11.3213333,63.6266667 11.868,63.64 Z M16.996,53.548 L16.996,51.78 L15.068,51.78 L15.068,53.548 L16.996,53.548 Z M16.996,63.5 L16.996,54.86 L15.068,54.86 L15.068,63.5 L16.996,63.5 Z M20.832,63.5 L20.832,59.06 C20.832,58.532 20.8906667,58.0986667 21.008,57.76 C21.1253333,57.4213333 21.2813333,57.1546667 21.476,56.96 C21.6706667,56.7653333 21.888,56.628 22.128,56.548 C22.368,56.468 22.6106667,56.428 22.856,56.428 C23.3146667,56.428 23.6786667,56.5266667 23.948,56.724 C24.2173333,56.9213333 24.42,57.1733333 24.556,57.48 C24.692,57.7866667 24.7786667,58.1053333 24.816,58.436 C24.8533333,58.7666667 24.872,59.068 24.872,59.34 L24.872,59.34 L24.872,63.5 L26.824,63.5 L26.824,58.676 C26.824,58.468 26.8066667,58.1973333 26.772,57.864 C26.7373333,57.5306667 26.6613333,57.1773333 26.544,56.804 C26.4266667,56.4306667 26.2453333,56.0786667 26,55.748 C25.7546667,55.4173333 25.424,55.1453333 25.008,54.932 C24.592,54.7186667 24.064,54.612 23.424,54.612 C22.6133333,54.612 21.9306667,54.7893333 21.376,55.144 C21.0986667,55.3213333 20.855,55.529 20.645,55.767 L20.6,55.821 L20.6,54.86 L18.88,54.86 L18.88,63.5 L20.832,63.5 Z M32.02,63.74 C32.9853333,63.74 33.8013333,63.504 34.468,63.032 C35.1346667,62.56 35.6013333,61.884 35.868,61.004 L35.868,61.004 L33.9,60.564 C33.7506667,61.0066667 33.528,61.3453333 33.232,61.58 C32.936,61.8146667 32.532,61.932 32.02,61.932 C31.2946667,61.932 30.748,61.6786667 30.38,61.172 C30.012,60.6653333 29.828,60.0013333 29.828,59.18 C29.828,58.652 29.9053333,58.18 30.06,57.764 C30.2146667,57.348 30.4546667,57.0213333 30.78,56.784 C31.1053333,56.5466667 31.5186667,56.428 32.02,56.428 C32.4626667,56.428 32.8573333,56.5573333 33.204,56.816 C33.5506667,57.0746667 33.7986667,57.436 33.948,57.9 L33.948,57.9 L35.868,57.38 C35.66,56.5266667 35.216,55.8533333 34.536,55.36 C33.856,54.8666667 33.0253333,54.62 32.044,54.62 C31.1693333,54.62 30.4146667,54.816 29.78,55.208 C29.1453333,55.6 28.656,56.1386667 28.312,56.824 C27.968,57.5093333 27.7933333,58.2946667 27.788,59.18 C27.7933333,60.0493333 27.9626667,60.828 28.296,61.516 C28.6293333,62.204 29.1106667,62.7466667 29.74,63.144 C30.3693333,63.5413333 31.1293333,63.74 32.02,63.74 Z M40.364,63.64 C40.9106667,63.6533333 41.4693333,63.6066667 42.04,63.5 L42.04,63.5 L42.04,61.884 C41.5013333,61.964 41.0213333,61.9853333 40.6,61.948 C40.1786667,61.9106667 39.872,61.732 39.68,61.412 C39.5786667,61.2466667 39.524,61.0333333 39.516,60.772 C39.508,60.5106667 39.504,60.2066667 39.504,59.86 L39.504,56.372 L42.04,56.372 L42.04,54.86 L39.504,54.86 L39.504,52.46 L37.584,52.46 L37.584,54.86 L36.016,54.86 L36.016,56.372 L37.584,56.372 L37.584,59.972 C37.584,60.34 37.587,60.6795 37.593,60.9905 L37.6,61.292 C37.6106667,61.6813333 37.7146667,62.0626667 37.912,62.436 C38.136,62.8466667 38.464,63.1466667 38.896,63.336 C39.328,63.5253333 39.8173333,63.6266667 40.364,63.64 Z M45.492,53.548 L45.492,51.78 L43.564,51.78 L43.564,53.548 L45.492,53.548 Z M45.492,63.5 L45.492,54.86 L43.564,54.86 L43.564,63.5 L45.492,63.5 Z M51.208,63.74 C52.072,63.74 52.8266667,63.5466667 53.472,63.16 C54.1173333,62.7733333 54.62,62.2373333 54.98,61.552 C55.34,60.8666667 55.52,60.076 55.52,59.18 C55.52,58.2893333 55.3413333,57.5013333 54.984,56.816 C54.6266667,56.1306667 54.1253333,55.5933333 53.48,55.204 C52.8346667,54.8146667 52.0773333,54.62 51.208,54.62 C50.36,54.62 49.6133333,54.812 48.968,55.196 C48.3226667,55.58 47.8186667,56.1133333 47.456,56.796 C47.0933333,57.4786667 46.912,58.2733333 46.912,59.18 C46.912,60.0706667 47.0893333,60.8586667 47.444,61.544 C47.7986667,62.2293333 48.2986667,62.7666667 48.944,63.156 C49.5893333,63.5453333 50.344,63.74 51.208,63.74 Z M51.208,61.932 C50.4666667,61.932 49.9053333,61.6826667 49.524,61.184 C49.1426667,60.6853333 48.952,60.0173333 48.952,59.18 C48.952,58.636 49.032,58.1573333 49.192,57.744 C49.352,57.3306667 49.5986667,57.008 49.932,56.776 C50.2653333,56.544 50.6906667,56.428 51.208,56.428 C51.9653333,56.428 52.5333333,56.6773333 52.912,57.176 C53.2906667,57.6746667 53.48,58.3426667 53.48,59.18 C53.48,59.9906667 53.2933333,60.652 52.92,61.164 C52.5466667,61.676 51.976,61.932 51.208,61.932 Z M58.716,63.5 L58.716,59.06 C58.716,58.532 58.7746667,58.0986667 58.892,57.76 C59.0093333,57.4213333 59.1653333,57.1546667 59.36,56.96 C59.5546667,56.7653333 59.772,56.628 60.012,56.548 C60.252,56.468 60.4946667,56.428 60.74,56.428 C61.1986667,56.428 61.5626667,56.5266667 61.832,56.724 C62.1013333,56.9213333 62.304,57.1733333 62.44,57.48 C62.576,57.7866667 62.6626667,58.1053333 62.7,58.436 C62.7373333,58.7666667 62.756,59.068 62.756,59.34 L62.756,59.34 L62.756,63.5 L64.708,63.5 L64.708,58.676 C64.708,58.468 64.6906667,58.1973333 64.656,57.864 C64.6213333,57.5306667 64.5453333,57.1773333 64.428,56.804 C64.3106667,56.4306667 64.1293333,56.0786667 63.884,55.748 C63.6386667,55.4173333 63.308,55.1453333 62.892,54.932 C62.476,54.7186667 61.948,54.612 61.308,54.612 C60.4973333,54.612 59.8146667,54.7893333 59.26,55.144 C58.9826667,55.3213333 58.739,55.529 58.529,55.767 L58.484,55.822 L58.484,54.86 L56.764,54.86 L56.764,63.5 L58.716,63.5 Z M69.624,63.74 C70.7386667,63.74 71.612,63.492 72.244,62.996 C72.876,62.5 73.192,61.8173333 73.192,60.948 C73.192,60.5 73.1,60.1186667 72.916,59.804 C72.732,59.4893333 72.4333333,59.2186667 72.02,58.992 C71.6066667,58.7653333 71.056,58.564 70.368,58.388 C69.696,58.2173333 69.1906667,58.0733333 68.852,57.956 C68.5133333,57.8386667 68.288,57.7213333 68.176,57.604 C68.064,57.4866667 68.008,57.3453333 68.008,57.18 C68.008,56.8866667 68.1466667,56.6586667 68.424,56.496 C68.7013333,56.3333333 69.0666667,56.2653333 69.52,56.292 C69.9946667,56.3186667 70.3746667,56.4386667 70.66,56.652 C70.9453333,56.8653333 71.112,57.156 71.16,57.524 L71.16,57.524 L73.128,57.172 C73.0533333,56.6546667 72.856,56.204 72.536,55.82 C72.216,55.436 71.796,55.14 71.276,54.932 C70.756,54.724 70.16,54.62 69.488,54.62 C68.8,54.62 68.2026667,54.728 67.696,54.944 C67.1893333,55.16 66.7946667,55.468 66.512,55.868 C66.2293333,56.268 66.088,56.7373333 66.088,57.276 C66.088,57.708 66.1813333,58.076 66.368,58.38 C66.5546667,58.684 66.8613333,58.9466667 67.288,59.168 C67.7146667,59.3893333 68.2906667,59.596 69.016,59.788 C69.6666667,59.9586667 70.1493333,60.1 70.464,60.212 C70.7786667,60.324 70.9826667,60.44 71.076,60.56 C71.1693333,60.68 71.216,60.8386667 71.216,61.036 C71.216,61.356 71.0893333,61.608 70.836,61.792 C70.5826667,61.976 70.224,62.068 69.76,62.068 C69.232,62.068 68.7946667,61.9453333 68.448,61.7 C68.1013333,61.4546667 67.8773333,61.1186667 67.776,60.692 L67.776,60.692 L65.808,60.996 C65.952,61.8653333 66.3573333,62.54 67.024,63.02 C67.6906667,63.5 68.5573333,63.74 69.624,63.74 Z" id="Distinctions" fill="#2A2926" fill-rule="nonzero" transform="translate(29.406000, 57.760000) rotate(270.000000) translate(-29.406000, -57.760000) "></path>
        </g>
    </g>
</svg>