<?xml version="1.0" encoding="UTF-8"?>
<svg width="59px" height="124px" viewBox="0 0 59 124" version="1.1" xmlns="http://www.w3.org/2000/svg" xmlns:xlink="http://www.w3.org/1999/xlink">
    <title>awards</title>
    <g id="good" stroke="none" stroke-width="1" fill="none" fill-rule="evenodd">
        <g id="ECO---G5---Project-Detail" transform="translate(-255.000000, -800.000000)">
            <g id="Group-16" transform="translate(181.000000, 800.000000)">
                <g id="awards" transform="translate(74.000000, 0.000000)">
                    <polygon id="Rectangle" fill="#FAB900" points="0 4.40966708e-14 59 4.40966708e-14 59 124 29.5 102.636364 0 124"></polygon>
                    <path d="M0.232,55.96 L1.116,53.152 L6.221,53.152 L7.117,55.96 L9.349,55.96 L5.263,43 L2.086,43 L-2,55.96 L0.232,55.96 Z M5.575,51.128 L1.754,51.128 L3.653,45.1 L5.575,51.128 Z M14.011,55.96 L16.207,49.273 L18.412,55.96 L20.104,55.96 L23.074,46.24 L20.95,46.24 L19.042,52.477 L17.125,46.24 L15.298,46.24 L13.372,52.477 L11.473,46.24 L9.349,46.222 L12.319,55.96 L14.011,55.96 Z M26.872,56.23 C27.748,56.23 28.4785,56.0665 29.0635,55.7395 C29.4535,55.5215 29.8108333,55.2201667 30.1355,54.8355 L30.283,54.652 L30.283,55.96 L32.182,55.96 L32.182,49.993 C32.182,49.573 32.164,49.1845 32.128,48.8275 C32.092,48.4705 31.987,48.121 31.813,47.779 C31.495,47.137 31.0075,46.675 30.3505,46.393 C29.6935,46.111 28.933,45.97 28.069,45.97 C26.923,45.97 26.0125,46.219 25.3375,46.717 C24.6625,47.215 24.205,47.875 23.965,48.697 L23.965,48.697 L25.945,49.318 C26.107,48.82 26.392,48.469 26.8,48.265 C27.208,48.061 27.631,47.959 28.069,47.959 C28.795,47.959 29.311,48.118 29.617,48.436 C29.855,48.6833333 29.9986296,49.0377407 30.0478889,49.4992222 L30.055,49.598 L29.535,49.674 L29.535,49.674 L28.9105,49.7635 C28.2955,49.8505 27.7255,49.945 27.2005,50.047 C26.6755,50.149 26.218,50.263 25.828,50.389 C25.312,50.563 24.892,50.7865 24.568,51.0595 C24.244,51.3325 24.004,51.6565 23.848,52.0315 C23.692,52.4065 23.614,52.828 23.614,53.296 C23.614,53.83 23.7385,54.319 23.9875,54.763 C24.2365,55.207 24.604,55.5625 25.09,55.8295 C25.576,56.0965 26.17,56.23 26.872,56.23 Z M27.304,54.502 C26.962,54.502 26.6755,54.448 26.4445,54.34 C26.2135,54.232 26.038,54.0865 25.918,53.9035 C25.798,53.7205 25.738,53.509 25.738,53.269 C25.738,53.059 25.7845,52.876 25.8775,52.72 C25.9705,52.564 26.104,52.426 26.278,52.306 C26.452,52.186 26.665,52.081 26.917,51.991 C27.175,51.907 27.472,51.8305 27.808,51.7615 C28.144,51.6925 28.546,51.619 29.014,51.541 C29.248,51.502 29.50525,51.46 29.78575,51.415 L30.027,51.377 L30.0229,51.5455 C30.0211,51.6061 30.019,51.6694 30.0166,51.7354 L30.0085,51.9415 C29.9935,52.2985 29.929,52.615 29.815,52.891 C29.743,53.113 29.6035,53.35 29.3965,53.602 C29.1895,53.854 28.912,54.067 28.564,54.241 C28.216,54.415 27.796,54.502 27.304,54.502 Z M36.7,55.96 L36.7,51.019 C36.7,50.647 36.745,50.3005 36.835,49.9795 C36.925,49.6585 37.0645,49.372 37.2535,49.12 C37.4425,48.868 37.687,48.661 37.987,48.499 C38.287,48.319 38.6245,48.214 38.9995,48.184 C39.3745,48.154 39.706,48.181 39.994,48.265 L39.994,48.265 L39.994,46.24 C39.706,46.192 39.409,46.1785 39.103,46.1995 C38.797,46.2205 38.4985,46.2775 38.2075,46.3705 C37.9165,46.4635 37.651,46.591 37.411,46.753 C37.129,46.927 36.8875,47.1475 36.6865,47.4145 C36.63625,47.48125 36.5885313,47.5497813 36.5433438,47.6200938 L36.439,47.796 L36.439,46.24 L34.522,46.24 L34.522,55.96 L36.7,55.96 Z M45.421,56.23 C46.369,56.23 47.164,56.005 47.806,55.555 C47.8773333,55.505 47.9467037,55.4529815 48.0141111,55.3989444 L48.193,55.246 L48.193,55.96 L50.11,55.96 L50.11,43 L47.923,43 L47.923,46.714 L47.8285,46.6405 C47.2642,46.2382 46.579615,46.016935 45.774745,45.976705 L45.502,45.97 C44.584,45.97 43.786,46.1935 43.108,46.6405 C42.43,47.0875 41.9065,47.6965 41.5375,48.4675 C41.1685,49.2385 40.984,50.116 40.984,51.1 C40.984,52.072 41.167,52.945 41.533,53.719 C41.899,54.493 42.415,55.105 43.081,55.555 C43.747,56.005 44.527,56.23 45.421,56.23 Z M45.754,54.286 C45.19,54.286 44.725,54.145 44.359,53.863 C43.993,53.581 43.7215,53.1985 43.5445,52.7155 C43.3675,52.2325 43.279,51.694 43.279,51.1 C43.279,50.512 43.369,49.9765 43.549,49.4935 C43.729,49.0105 44.008,48.6265 44.386,48.3415 C44.764,48.0565 45.244,47.914 45.826,47.914 C46.378,47.914 46.828,48.0475 47.176,48.3145 C47.524,48.5815 47.7805,48.9535 47.9455,49.4305 C48.1105,49.9075 48.193,50.464 48.193,51.1 C48.193,51.73 48.1105,52.285 47.9455,52.765 C47.7805,53.245 47.5195,53.6185 47.1625,53.8855 C46.8055,54.1525 46.336,54.286 45.754,54.286 Z M56.383,56.23 C57.637,56.23 58.6195,55.951 59.3305,55.393 C60.0415,54.835 60.397,54.067 60.397,53.089 C60.397,52.585 60.2935,52.156 60.0865,51.802 C59.8795,51.448 59.5435,51.1435 59.0785,50.8885 C58.6135,50.6335 57.994,50.407 57.22,50.209 C56.464,50.017 55.8955,49.855 55.5145,49.723 C55.1335,49.591 54.88,49.459 54.754,49.327 C54.628,49.195 54.565,49.036 54.565,48.85 C54.565,48.52 54.721,48.2635 55.033,48.0805 C55.345,47.8975 55.756,47.821 56.266,47.851 C56.8,47.881 57.2275,48.016 57.5485,48.256 C57.8695,48.496 58.057,48.823 58.111,49.237 L58.111,49.237 L60.325,48.841 C60.241,48.259 60.019,47.752 59.659,47.32 C59.299,46.888 58.8265,46.555 58.2415,46.321 C57.6565,46.087 56.986,45.97 56.23,45.97 C55.456,45.97 54.784,46.0915 54.214,46.3345 C53.644,46.5775 53.2,46.924 52.882,47.374 C52.564,47.824 52.405,48.352 52.405,48.958 C52.405,49.444 52.51,49.858 52.72,50.2 C52.93,50.542 53.275,50.8375 53.755,51.0865 C54.235,51.3355 54.883,51.568 55.699,51.784 C56.431,51.976 56.974,52.135 57.328,52.261 C57.682,52.387 57.9115,52.5175 58.0165,52.6525 C58.1215,52.7875 58.174,52.966 58.174,53.188 C58.174,53.548 58.0315,53.8315 57.7465,54.0385 C57.4615,54.2455 57.058,54.349 56.536,54.349 C55.942,54.349 55.45,54.211 55.06,53.935 C54.67,53.659 54.418,53.281 54.304,52.801 L54.304,52.801 L52.09,53.143 C52.252,54.121 52.708,54.88 53.458,55.42 C54.208,55.96 55.183,56.23 56.383,56.23 Z" id="Awards" fill="#2A2926" fill-rule="nonzero" transform="translate(29.198500, 49.615000) rotate(270.000000) translate(-29.198500, -49.615000) "></path>
                </g>
            </g>
        </g>
    </g>
</svg>