<?xml version="1.0" encoding="UTF-8"?>
<svg width="240px" height="243px" viewBox="0 0 240 243" version="1.1" xmlns="http://www.w3.org/2000/svg" xmlns:xlink="http://www.w3.org/1999/xlink">
    <title>symbol-eco</title>
    <g id="good" stroke="none" stroke-width="1" fill="none" fill-rule="evenodd">
        <g id="symbol-eco" transform="translate(0.000000, 0.222222)" fill="#FAB900">
            <path d="M137.650973,141.433014 C126.526456,152.559366 108.486697,152.559366 97.3772128,141.433014 C86.2075957,130.291626 86.2075957,112.248894 97.3772128,101.122542 C108.486697,89.9961898 126.526456,89.9961898 137.650973,101.122542 C148.790524,112.263929 148.775491,130.291626 137.650973,141.433014" id="Fill-20"></path>
            <path d="M188.661149,92.4458945 C177.520129,103.557577 159.493026,103.557577 148.367041,92.4308584 C137.210986,81.3041398 137.210986,63.2758485 148.367041,52.1340938 C159.462956,40.9923391 177.520129,40.9923391 188.661149,52.1340938 C199.787133,63.2758485 199.772098,81.3041398 188.661149,92.4458945" id="Fill-22"></path>
            <path d="M184.264803,185.043924 C175.269868,194.022396 160.742973,194.022396 151.71869,185.043924 C142.767775,176.080122 142.753101,161.482769 151.71869,152.533638 C160.713626,143.525824 175.269868,143.525824 184.264803,152.533638 C193.245066,161.51211 193.245066,176.080122 184.264803,185.043924" id="Fill-24"></path>
            <path d="M79.2441404,88.0313068 C70.2656689,97.0266014 55.741671,97.0266014 46.7485288,88.0313068 C37.7553866,79.0360121 37.7553866,64.5085378 46.7191874,55.5132431 C55.7270002,46.5326227 70.2656689,46.5326227 79.2441404,55.5132431 C88.2519532,64.5085378 88.2519532,79.0360121 79.2441404,88.0313068" id="Fill-26"></path>
            <path d="M97.3772128,193.097287 C108.486697,182.002104 126.526456,182.002104 137.650973,193.112321 C148.775491,204.252606 148.790524,222.293554 137.650973,233.433839 C126.541489,244.559091 108.486697,244.559091 97.3772128,233.433839 C86.2075957,222.293554 86.2075957,204.252606 97.3772128,193.097287" id="Fill-28"></path>
            <path d="M46.7453951,152.533638 C55.7392552,143.525824 70.2644127,143.525824 79.243601,152.533638 C88.252133,161.49744 88.252133,176.080122 79.243601,185.043924 C70.2644127,194.022396 55.7392552,194.022396 46.7453951,185.043924 C37.751535,176.080122 37.751535,161.49744 46.7453951,152.533638" id="Fill-30"></path>
            <path d="M5.40944405,108.197875 C12.636969,100.971079 24.3443648,100.971079 31.5569569,108.197875 C38.8143477,115.454533 38.8143477,127.130885 31.5569569,134.357681 C24.3443648,141.584477 12.636969,141.584477 5.40944405,134.357681 C-1.80314802,127.101022 -1.80314802,115.454533 5.40944405,108.197875" id="Fill-32"></path>
            <path d="M208.398244,108.197875 C215.625769,100.971079 227.333165,100.971079 234.590556,108.197875 C241.803148,115.454533 241.803148,127.130885 234.590556,134.357681 C227.333165,141.584477 215.625769,141.584477 208.398244,134.357681 C201.200585,127.130885 201.200585,115.454533 208.398244,108.197875" id="Fill-34"></path>
            <path d="M104.411082,6.21917378 C111.625858,-1.03602089 123.336799,-1.03602089 130.566512,6.21917378 C137.811163,13.4445117 137.811163,25.1334364 130.566512,32.3587743 C123.336799,39.5841123 111.625858,39.5841123 104.411082,32.3587743 C97.196306,25.1334364 97.196306,13.4445117 104.411082,6.21917378" id="Fill-36"></path>
        </g>
    </g>
</svg>